<?xml version="1.0" encoding="UTF-8"?>
<svg id="SLogo1" xmlns="http://www.w3.org/2000/svg" viewBox="0 0 1080 365.77">
  <defs>
    <style>
      .cls-1 {
        fill: #e5e5e5;
      }

      .cls-2 {
        fill: #152651;
      }
    </style>
  </defs>
  <rect class="cls-2" y="0" width="1080" height="365.77"/>
  <g>
    <path class="cls-1" d="M448.45,188.75v4.84c0,4.95-4.03,8.98-8.98,8.98h-69.53c-3.51,0-6.63-1.98-8.12-5.15-1.5-3.18-1.04-6.84,1.21-9.55l4.01-4.84c1.71-2.06,4.22-3.25,6.91-3.25h5.27c.99,0,1.78-.8,1.78-1.78,0-10.94,3.52-20.88,9.9-28,6.83-7.62,16.37-11.65,27.59-11.65,7.58,0,14.81,2.71,21.5,8.04,1.99,1.58,3.19,3.96,3.32,6.5.13,2.58-.86,5.1-2.71,6.9l-3.89,3.81c-3.3,3.22-8.58,3.42-12.03.45-2.5-2.14-5.14-3.18-8.08-3.18-5.59,0-12,1.67-12,14.7v2.42c0,.99.8,1.78,1.78,1.78h33.09c4.95,0,8.98,4.02,8.98,8.97Z"/>
    <path class="cls-1" d="M612.26,158.59v57.64c0,14.84-4.99,27.21-14.81,36.74-9.89,9.6-23.13,14.47-39.36,14.47h-25.56c-16.45,0-29.32-5.02-38.27-14.92-.37-.4-.86-.63-1.37-.64-.5.01-1.01.2-1.38.59-9.53,9.94-23.33,14.97-41.01,14.97h-95.49c-31.11,0-52.02-20.04-52.02-49.87v-24.97c0-2.36.91-4.59,2.57-6.28,3.33-3.4,7.72-5.27,12.36-5.27,8.63,0,17.56,6.54,17.56,17.48v16.35c0,15.53,7.32,22.76,23.03,22.76h90.65c15.89,0,23.3-7.23,23.3-22.76v-103.6c0-9.62,6.19-17.94,15.4-20.72,1.24-.37,2.51-.55,3.78-.55,7.19,0,13.04,5.86,13.04,13.06v103.75c0,21.03,9.37,30.83,29.49,30.83h4.3c1.04,0,2.08.19,3.06.54h15.23c15.72,0,23.04-7.58,23.04-23.84v-53.97c0-7.66,5.12-14.53,12.45-16.71,1.45-.43,2.96-.65,4.47-.65,8.58,0,15.56,6.99,15.56,15.58Z"/>
    <path class="cls-1" d="M596.08,302.54c-.27,4.45-2.5,8.74-6.27,12.07-3.35,2.95-7.31,4.48-11.32,4.48-2.27,0-4.54-.49-6.73-1.47-6.32-2.85-10.55-9.32-10.55-16.1,0-9.39,7.93-17.32,17.32-17.32,4.83,0,9.53,2.05,12.88,5.62,3.3,3.51,4.96,8.04,4.67,12.73Z"/>
    <path class="cls-1" d="M906.52,168.92v47.31c0,14.84-4.98,27.2-14.81,36.74-9.89,9.6-23.14,14.47-39.36,14.47h-166.88v-.03c-.32.02-.65.03-.97.03h-17.22c-24.12,0-39.1-14.68-39.1-38.3v-122.45c0-6.53,4.18-12.24,10.41-14.2l2.96-.94c4.58-1.45,9.42-.65,13.29,2.19s6.09,7.22,6.09,12.02v122.58c0,6.7,2.68,9.31,9.58,9.31h13.99c.32,0,.65,0,.97.03v-.03h30.66v-42.4c0-15.94,5.13-29.43,15.25-40.13,9.81-10.08,22.2-14.37,41.47-14.37,6.84,0,27.3,2.45,31.52,13.38,2.62,6.73,4.31,13.91-.95,20.73l-.27.35c-2.34,3.03-5.53,7.17-10.14,7.96l-12.24,2.1-1.32-1.6c-3.24-3.92-4.3-8.05-5.14-11.37-1.23-4.83-1.33-5.23-5.79-4.33-11.37,2.3-19.63,12.55-19.63,24.39v45.33l89.22.52h12.89c15.71,0,23.03-7.58,23.03-23.84v-66.98l2.58-.76c2.18-.65,4.42-.98,6.67-.98,12.81,0,23.23,10.45,23.23,23.28Z"/>
    <g>
      <path class="cls-1" d="M866.85,117.13c-3.31,3.3-7.66,5.04-12.12,5.04-1.89,0-3.8-.32-5.66-.96-5.07-1.75-9.14-5.82-10.89-10.89-2.17-6.26-.61-13.07,4.07-17.78,4.82-4.85,11.82-6.49,18.25-4.3,4.96,1.69,8.94,5.67,10.63,10.63h0c2.19,6.44.55,13.43-4.3,18.25Z"/>
      <path class="cls-1" d="M908.41,104.6c0,5.03-2.19,9.84-6.01,13.2-3.26,2.86-7.29,4.39-11.55,4.39-.76,0-1.53-.05-2.31-.15-6.45-.82-12.06-5.36-14.27-11.57-1.91-5.35-1.14-11.04,2.09-15.63,3.33-4.73,8.74-7.55,14.46-7.55,9.7,0,17.58,7.76,17.58,17.31Z"/>
    </g>
    <path class="cls-1" d="M965.21,150.37v105.07c0,6.62-7.35,12.01-16.38,12.01s-16.37-5.39-16.37-12.01v-105.07c0-5.27,4.6-9.87,11.44-11.45,5.03-1.17,10.35-.52,14.61,1.76,4.25,2.29,6.69,5.82,6.69,9.69Z"/>
  </g>
  <path class="cls-1" d="M279.5,196.9l-12.21-65.48c-4.62-24.76-28.67-41.26-53.44-36.64l-66.23,12.35c-24.77,4.63-41.26,28.67-36.64,53.45l12.22,65.47c4.62,24.77,28.66,41.26,53.44,36.64l66.23-12.35c24.76-4.62,41.26-28.66,36.63-53.44ZM239.62,180.47l-32.84,6.13,6.09,32.68c1,5.34-2.56,10.49-7.92,11.49-5.36,1-10.53-2.53-11.53-7.87l-6.1-32.68-32.83,6.13c-4.27.79-8.51-1.23-10.54-5.04-1.5-2.8-1.56-6.04-.19-8.9,1.39-2.86,3.98-4.84,7.12-5.42l32.83-6.13-6.09-32.67c-.79-4.25,1.24-8.46,5.07-10.5,2.81-1.49,6.08-1.56,8.95-.2,2.87,1.38,4.85,3.95,5.43,7.07l6.1,32.67,32.84-6.12c5.37-1,10.53,2.53,11.53,7.87,1,5.33-2.55,10.49-7.92,11.49Z"/>
  <path class="cls-1" d="M976.87,119.58v3.1c0,3.17-2.58,5.75-5.75,5.75h-44.55c-2.25,0-4.25-1.27-5.2-3.3-.96-2.04-.66-4.38.77-6.12l2.57-3.1c1.09-1.32,2.71-2.08,4.43-2.08h3.37c.63,0,1.14-.51,1.14-1.14,0-7.01,2.25-13.38,6.34-17.94,4.37-4.88,10.49-7.46,17.68-7.46,4.85,0,9.49,1.73,13.77,5.15,1.27,1.01,2.05,2.54,2.12,4.17.08,1.65-.55,3.27-1.73,4.42l-2.49,2.44c-2.12,2.07-5.5,2.19-7.71.29-1.6-1.37-3.29-2.04-5.18-2.04-3.58,0-7.69,1.07-7.69,9.42v1.55c0,.63.51,1.14,1.14,1.14h21.2c3.17,0,5.75,2.58,5.75,5.75Z"/>
</svg>