<?xml version="1.0" encoding="UTF-8"?>
<svg id="Cover" xmlns="http://www.w3.org/2000/svg" viewBox="0 0 1200 675">
  <defs>
    <style>
      .cls-1 {
        fill: #e5e5e5;
      }

      .cls-2 {
        fill: #152651;
      }

      .cls-3 {
        fill: #fff;
        font-family: DINNextLTArabic-Regular, 'DIN Next LT Arabic';
        font-size: 94.14px;
      }
    </style>
  </defs>
  <rect class="cls-2" width="1200" height="675"/>
  <path class="cls-1" d="M686.72,411.9l-2.05-68.37c-.78-25.86-22.58-46.39-48.44-45.61l-69.15,2.08c-25.87.79-46.39,22.58-45.61,48.45l2.07,68.36c.78,25.87,22.57,46.39,48.44,45.61l69.15-2.08c25.86-.78,46.39-22.57,45.6-48.44ZM648.84,388.95l-34.29,1.04,1.02,34.12c.17,5.57-4.25,10.24-9.85,10.41-5.59.17-10.29-4.23-10.46-9.8l-1.03-34.13-34.28,1.04c-4.46.13-8.44-2.59-9.9-6.78-1.08-3.08-.63-6.37,1.22-9.06,1.86-2.68,4.8-4.29,8.08-4.38l34.28-1.04-1.02-34.11c-.13-4.43,2.6-8.39,6.8-9.85,3.08-1.07,6.41-.63,9.11,1.21,2.69,1.85,4.3,4.77,4.39,8.03l1.03,34.11,34.29-1.03c5.6-.17,10.29,4.23,10.46,9.8.17,5.56-4.24,10.24-9.85,10.41Z"/>
  <text class="cls-3" transform="translate(469.48 466.27) rotate(-129.77)"><tspan x="0" y="0">لأن تعبك مش ببلاش</tspan></text>
</svg>