<?xml version="1.0" encoding="UTF-8"?>
<svg id="Profile" xmlns="http://www.w3.org/2000/svg" viewBox="0 0 1080 1080">
  <defs>
    <style>
      .cls-1 {
        fill: #e5e5e5;
      }

      .cls-2 {
        fill: #152651;
      }
    </style>
  </defs>
  <rect class="cls-2" width="1080" height="1080"/>
  <g>
    <path class="cls-1" d="M468.88,529.2v3.62c0,3.7-3.01,6.72-6.72,6.72h-52c-2.63,0-4.96-1.48-6.08-3.85-1.12-2.38-.77-5.12.9-7.14l3-3.62c1.28-1.54,3.16-2.43,5.17-2.43h3.94c.74,0,1.33-.6,1.33-1.33,0-8.18,2.63-15.62,7.4-20.94,5.11-5.7,12.24-8.71,20.64-8.71,5.67,0,11.07,2.02,16.08,6.02,1.49,1.18,2.39,2.96,2.48,4.86.1,1.93-.64,3.82-2.02,5.16l-2.91,2.85c-2.47,2.41-6.42,2.56-9,.34-1.87-1.6-3.84-2.38-6.04-2.38-4.18,0-8.98,1.25-8.98,10.99v1.81c0,.74.6,1.33,1.33,1.33h24.75c3.7,0,6.72,3.01,6.72,6.71Z"/>
    <path class="cls-1" d="M591.39,506.65v43.11c0,11.1-3.73,20.35-11.08,27.48-7.39,7.18-17.3,10.82-29.43,10.82h-19.11c-12.3,0-21.93-3.76-28.62-11.16-.27-.3-.64-.47-1.03-.48-.38.01-.75.15-1.03.44-7.12,7.43-17.45,11.2-30.67,11.2h-71.42c-23.27,0-38.9-14.99-38.9-37.3v-18.68c0-1.76.68-3.43,1.92-4.7,2.49-2.54,5.77-3.94,9.24-3.94,6.45,0,13.13,4.89,13.13,13.07v12.23c0,11.62,5.47,17.03,17.22,17.03h67.8c11.89,0,17.42-5.41,17.42-17.03v-77.48c0-7.19,4.63-13.42,11.52-15.5.93-.27,1.88-.41,2.83-.41,5.38,0,9.75,4.38,9.75,9.77v77.59c0,15.73,7.01,23.06,22.06,23.06h3.22c.78,0,1.56.14,2.29.4h11.39c11.76,0,17.23-5.67,17.23-17.83v-40.36c0-5.73,3.83-10.86,9.31-12.5,1.09-.32,2.21-.49,3.34-.49,6.41,0,11.63,5.22,11.63,11.65Z"/>
    <path class="cls-1" d="M579.3,614.31c-.2,3.33-1.87,6.54-4.69,9.02-2.5,2.21-5.47,3.35-8.46,3.35-1.69,0-3.4-.37-5.03-1.1-4.72-2.13-7.89-6.97-7.89-12.04,0-7.02,5.93-12.95,12.95-12.95,3.61,0,7.12,1.53,9.63,4.2,2.47,2.63,3.71,6.01,3.49,9.52Z"/>
    <path class="cls-1" d="M811.48,514.37v35.39c0,11.1-3.72,20.35-11.07,27.48-7.4,7.18-17.31,10.82-29.43,10.82h-124.81v-.02c-.24.02-.48.02-.73.02h-12.88c-18.04,0-29.25-10.98-29.25-28.64v-91.58c0-4.89,3.13-9.15,7.79-10.62l2.21-.7c3.42-1.08,7.04-.48,9.94,1.64s4.56,5.4,4.56,8.99v91.68c0,5.01,2.01,6.96,7.17,6.96h10.46c.24,0,.48,0,.73.02v-.02h22.93v-31.71c0-11.92,3.84-22.01,11.4-30.02,7.34-7.54,16.61-10.75,31.02-10.75,5.11,0,20.42,1.83,23.57,10,1.96,5.04,3.22,10.4-.71,15.5l-.2.26c-1.75,2.27-4.14,5.36-7.59,5.95l-9.15,1.57-.99-1.2c-2.43-2.93-3.21-6.02-3.84-8.5-.92-3.62-1-3.91-4.33-3.24-8.51,1.72-14.68,9.38-14.68,18.24v33.9l66.73.39h9.64c11.75,0,17.22-5.67,17.22-17.83v-50.09l1.93-.57c1.63-.48,3.31-.73,4.99-.73,9.58,0,17.38,7.81,17.38,17.41Z"/>
    <g>
      <path class="cls-1" d="M781.8,475.64c-2.48,2.46-5.73,3.77-9.06,3.77-1.41,0-2.84-.24-4.23-.72-3.79-1.31-6.83-4.35-8.14-8.14-1.63-4.68-.46-9.78,3.05-13.3,3.61-3.63,8.84-4.85,13.65-3.21,3.71,1.26,6.68,4.24,7.95,7.95h0c1.64,4.82.41,10.05-3.21,13.65Z"/>
      <path class="cls-1" d="M812.89,466.27c0,3.76-1.64,7.36-4.49,9.87-2.44,2.14-5.45,3.28-8.64,3.28-.57,0-1.15-.04-1.73-.11-4.83-.61-9.02-4.01-10.68-8.65-1.43-4-.86-8.26,1.57-11.69,2.49-3.54,6.54-5.64,10.82-5.64,7.25,0,13.15,5.81,13.15,12.95Z"/>
    </g>
    <path class="cls-1" d="M855.37,500.49v78.58c0,4.95-5.49,8.98-12.25,8.98s-12.24-4.03-12.24-8.98v-78.58c0-3.94,3.44-7.38,8.56-8.56,3.76-.87,7.74-.39,10.93,1.32,3.18,1.71,5,4.35,5,7.24Z"/>
  </g>
  <path class="cls-1" d="M342.52,535.29l-9.13-48.97c-3.45-18.52-21.44-30.86-39.97-27.4l-49.53,9.24c-18.53,3.46-30.86,21.44-27.4,39.97l9.14,48.96c3.45,18.53,21.44,30.86,39.97,27.4l49.53-9.24c18.52-3.45,30.86-21.44,27.4-39.97ZM312.7,523.01l-24.56,4.58,4.55,24.44c.75,3.99-1.92,7.85-5.92,8.59-4.01.75-7.88-1.89-8.62-5.88l-4.56-24.44-24.55,4.58c-3.19.59-6.36-.92-7.88-3.77-1.12-2.09-1.17-4.51-.14-6.65,1.04-2.14,2.98-3.62,5.32-4.05l24.55-4.58-4.55-24.44c-.59-3.18.93-6.33,3.79-7.85,2.1-1.12,4.55-1.17,6.69-.15,2.15,1.03,3.63,2.95,4.06,5.28l4.56,24.44,24.56-4.58c4.01-.75,7.88,1.89,8.62,5.88.75,3.98-1.91,7.85-5.92,8.59Z"/>
  <path class="cls-1" d="M864.09,477.47v2.32c0,2.37-1.93,4.3-4.3,4.3h-33.32c-1.68,0-3.18-.95-3.89-2.47-.72-1.52-.5-3.28.58-4.57l1.92-2.32c.82-.99,2.02-1.56,3.31-1.56h2.52c.47,0,.85-.38.85-.85,0-5.24,1.69-10,4.74-13.41,3.27-3.65,7.84-5.58,13.22-5.58,3.63,0,7.09,1.3,10.3,3.85.95.76,1.53,1.9,1.59,3.12.06,1.24-.41,2.44-1.3,3.31l-1.86,1.82c-1.58,1.54-4.11,1.64-5.76.22-1.2-1.02-2.46-1.52-3.87-1.52-2.68,0-5.75.8-5.75,7.04v1.16c0,.47.38.85.85.85h15.85c2.37,0,4.3,1.93,4.3,4.3Z"/>
</svg>